#!OML:ASF G:\JayActor3\Patient Classification 1\Patient 1\Session 2\male.ASF
:FULLY-SPECIFIED
:DEGREES
1593
root -30.5466 16.4895 -4.11101 158.816 -83.4717 -149.693
lowerback 5.10441 3.82724 4.18526
upperback -0.66163 5.35793 -0.0872311
thorax -3.14811 2.58852 -2.82275
lowerneck -10.1374 -4.21681 -3.10073
upperneck -0.682843 -5.60771 8.26937
head 1.92305 -2.64491 2.96437
rclavicle -2.05494e-014 1.09332e-015
rhumerus 14.1975 14.0542 -38.0895
rradius 74.5344
rwrist -2.28741
rhand -29.521 10.9185
rfingers 7.12502
rthumb -2.85484 -19.0421
lclavicle -2.05494e-014 1.09332e-015
lhumerus -78.0152 -6.28969 87.1081
lradius 38.9588
lwrist 20.2666
lhand -12.7612 17.0266
lfingers 7.12502
lthumb 13.3233 46.5807
rfemur 14.2635 1.98641 22.6533
rtibia 5.62554
rfoot -18.0978 0.66483
rtoes 11.0279
lfemur -40.9304 3.85844 -16.0458
ltibia 28.0892
lfoot -16.322 1.97407
ltoes -25.0144
1594
root -30.7371 16.4042 -4.10968 158.482 -82.7565 -149.629
lowerback 5.01757 3.94868 4.09271
upperback -0.596695 5.5105 0.0148141
thorax -3.03903 2.67034 -2.66625
lowerneck -9.95866 -4.15185 -2.9878
upperneck -0.606768 -5.54525 8.38425
head 1.9129 -2.61342 2.98856
rclavicle -2.99668e-014 -3.97569e-016
rhumerus 14.2588 15.8508 -39.3897
rradius 73.8586
rwrist -1.89152
rhand -29.493 11.0013
rfingers 7.12502
rthumb -2.82784 -18.9597
lclavicle -2.99668e-014 -3.97569e-016
lhumerus -78.588 -5.8924 88.5689
lradius 39.1029
lwrist 20.6034
lhand -12.7784 17.0256
lfingers 7.12502
lthumb 13.3068 46.5808
rfemur 16.9833 2.80737 22.9823
rtibia 2.52048
rfoot -17.4853 0.183768
rtoes 9.94076
lfemur -40.2462 3.45882 -15.2598
ltibia 27.9133
lfoot -14.264 2.23601
ltoes -23.2277
1595
root -30.9202 16.3258 -4.11217 158.393 -82.1659 -149.886
lowerback 5.10063 4.03248 3.89226
upperback -0.534578 5.61369 0.0902274
thorax -3.04016 2.72611 -2.48894
lowerneck -9.73506 -4.09777 -2.8714
upperneck -0.580216 -5.4963 8.5245
head 1.87996 -2.59056 3.02055
rclavicle 2.05835e-014 -1.67725e-014
rhumerus 14.1863 17.6645 -40.7823
rradius 73.2128
rwrist -1.34228
rhand -29.4451 11.1237
rfingers 7.12502
rthumb -2.78162 -18.8379
lclavicle 2.05835e-014 -1.67725e-014
lhumerus -78.9996 -5.59207 89.9802
lradius 39.2694
lwrist 20.7661
lhand -12.7635 16.9949
lfingers 7.12502
lthumb 13.3211 46.5492
rfemur 19.4548 3.51175 23.2673
rtibia -4.45278e-014
rfoot -17.0152 -0.23827
rtoes 8.59521
lfemur -39.7577 3.74611 -14.9369
ltibia 28.3244
lfoot -11.3799 2.1051
ltoes -20.7241
1596
root -31.094 16.2597 -4.11952 159.281 -81.7983 -151.156
lowerback 5.30471 4.06754 3.43421
upperback -0.466328 5.63897 0.100873
thorax -3.12662 2.74523 -2.24182
lowerneck -9.47416 -4.05824 -2.77322
upperneck -0.637198 -5.46215 8.7137
head 1.81633 -2.57764 3.0724
rclavicle 1.18587e-014 6.48535e-015
rhumerus 13.9645 19.448 -42.3423
rradius 72.6175
rwrist -0.648946
rhand -29.3341 11.2752
rfingers 7.12502
rthumb -2.67438 -18.6878
lclavicle 1.18587e-014 6.48535e-015
lhumerus -79.1788 -5.3868 91.3069
lradius 39.4129
lwrist 20.7775
lhand -12.7751 16.9381
lfingers 7.12502
lthumb 13.31 46.493
rfemur 20.5824 4.06586 23.2974
rtibia -5.40694e-014
rfoot -17.4316 -0.205934
rtoes 7.06845
lfemur -39.4722 4.61813 -15.1724
ltibia 29.1478
lfoot -7.98183 1.54485
ltoes -17.7006
1597
root -31.2566 16.2082 -4.13267 161.778 -81.7422 -154.037
lowerback 5.57792 4.04781 2.59732
upperback -0.373333 5.56328 0.0122338
thorax -3.25768 2.71967 -1.88577
lowerneck -9.2151 -4.0434 -2.71554
upperneck -0.797391 -5.45288 8.96393
head 1.7247 -2.57966 3.1516
rclavicle 1.26104e-014 -1.20265e-014
rhumerus 13.5688 21.1379 -44.1183
rradius 72.0903
rwrist 0.155923
rhand -29.157 11.4127
rfingers 7.12502
rthumb -2.50337 -18.5523
lclavicle 1.26104e-014 -1.20265e-014
lhumerus -79.0338 -5.30242 92.5271
lradius 39.4742
lwrist 20.6506
lhand -12.8668 16.8718
lfingers 7.12502
lthumb 13.2216 46.4325
rfemur 21.6591 4.40704 22.9861
rtibia 0
rfoot -17.6199 -0.233365
rtoes 5.49697
lfemur -39.3666 5.80823 -15.9821
ltibia 30.1848
lfoot -4.64484 0.5993
ltoes -14.5265
1598
root -31.4078 16.171 -4.15157 166.439 -81.9986 -159.075
lowerback 5.8917 3.98355 1.36861
upperback -0.240717 5.39117 -0.201867
thorax -3.39612 2.65218 -1.43508
lowerneck -8.96336 -4.06129 -2.73215
upperneck -1.0801 -5.47521 9.30312
head 1.60284 -2.60043 3.27427
rclavicle 8.00108e-015 -5.96354e-015
rhumerus 12.9436 22.6779 -46.1381
rradius 71.6439
rwrist 0.980027
rhand -28.9413 11.5025
rfingers 7.12502
rthumb -2.29503 -18.4649
lclavicle 8.00108e-015 -5.96354e-015
lhumerus -78.5136 -5.40411 93.6291
lradius 39.414
lwrist 20.4383
lhand -13.0858 16.8056
lfingers 7.12502
lthumb 13.0104 46.3799
rfemur 22.6687 4.51579 22.2736
rtibia -7.63333e-014
rfoot -17.5406 -0.340175
rtoes 3.90694
lfemur -39.3605 7.01341 -17.2956
ltibia 31.2513
lfoot -1.91548 -0.603889
ltoes -11.4571
